# xmcd
#
# Track frame offsets: 
#        150
#        24998
#        52317
#        57479
#        76104
#        98434
#        120679
#        131105
#        150934
#        169779
#        210162
#        233907
#        265173
#        289686
#
# Disc length: 3921 seconds
#
# Revision: 0
# Processed by: cddbd v1.5.2PL0 Copyright (c) Steve Scherf et al.
# Submitted via: ExactAudioCopy v1.0b1
#
DISCID=b30f4f0e
DTITLE=Three Yardbirds  - In The Hall - Disc 4
DYEAR=1900
DGENRE=
TTITLE0=Star Cycle
TTITLE1=The Pump
TTITLE2=Goodbye Pork Pie Hat
TTITLE3=Led Boots
TTITLE4=People Get Ready
TTITLE5=Hi Ho Silver Lining
TTITLE6=Prelude
TTITLE7=Who's To Blame
TTITLE8=City Sirens
TTITLE9=Stairway To Heaven
TTITLE10=Wee Wee Baby
TTITLE11=Layla
TTITLE12=Good Night Irene
TTITLE13=Broadcast Report
EXTD=
EXTT0=
EXTT1=
EXTT2=
EXTT3=
EXTT4=
EXTT5=
EXTT6=
EXTT7=
EXTT8=
EXTT9=
EXTT10=
EXTT11=
EXTT12=
EXTT13=
PLAYORDER=
